<svg aria-hidden="true" style="position: absolute; width: 0; height: 0; overflow: hidden;" version="1.1" xmlns="http://www.w3.org/2000/svg" xmlns:xlink="http://www.w3.org/1999/xlink">
<defs>
<symbol id="icon-logo" viewBox="0 0 37 32">
<path d="M36.36 12.802c0.482 2.395-2.475 1.757-2.475 1.757-1.238-2.999-3.218-2.719-3.218-2.719 1.55 0.974 1.668 1.802 1.668 1.802-4.13-2.518-9.745-0.492-11.881 0.459-1.199-1.455-3.622-4.711-2.762-6.189 1.133-1.936 3.439-0.828 3.439-0.828 4.664-0.067 4.403-1.5 4.403-1.5-1.238 0.828-4.885 0-4.885 0 3.166 0 4.508-1.108 4.508-1.108-2.358 0.504-4.99-1.656-4.99-1.656-0.964-4.241-5.42-2.44-5.42-2.44 2.788-0.414 2.045 2.126 2.045 2.126-3.491 1.063-3.166 2.764-3.166 2.764 1.133-1.332 2.097-1.432 2.097-1.432-3.192 3.861-0.117 9.233 0.795 10.631-1.668 0.996-5.576 3.189-7.335 2.428-2.254-0.974-0.964-2.954-0.964-2.954-0.052-4.006-1.72-3.783-1.72-3.783 0.964 1.063 0 4.197 0 4.197 0-2.719-1.29-3.872-1.29-3.872 0.586 2.026-1.928 4.286-1.928 4.286-4.938 0.828-2.84 4.655-2.84 4.655-0.482-2.395 2.475-1.757 2.475-1.757 1.238 2.999 3.218 2.719 3.218 2.719-1.55-0.974-1.668-1.802-1.668-1.802 4.364 2.663 10.396 0.246 12.22-0.604 1.225 1.511 3.504 4.622 2.658 6.066-1.133 1.936-3.439 0.828-3.439 0.828-4.664 0.045-4.403 1.477-4.403 1.477 1.238-0.828 4.885 0 4.885 0-3.166 0-4.508 1.108-4.508 1.108 2.358-0.504 4.99 1.656 4.99 1.656 0.964 4.241 5.42 2.44 5.42 2.44-2.788 0.414-2.045-2.126-2.045-2.126 3.491-1.063 3.166-2.764 3.166-2.764-1.133 1.332-2.097 1.432-2.097 1.432 3.127-3.771 0.248-8.998-0.73-10.531 1.772-1.063 5.354-2.966 7.009-2.249 2.254 0.974 0.964 2.954 0.964 2.954 0.052 4.006 1.72 3.783 1.72 3.783-0.964-1.063 0-4.197 0-4.197 0 2.719 1.29 3.872 1.29 3.872-0.586-2.026 1.928-4.286 1.928-4.286 4.964-0.817 2.866-4.644 2.866-4.644z"></path>
</symbol>
<symbol id="icon-hamburger" viewBox="0 0 41 32">
<path d="M2.286 0h36.044c1.262 0 2.286 1.023 2.286 2.286v0c0 1.262-1.023 2.286-2.286 2.286h-36.044c-1.262 0-2.286-1.023-2.286-2.286v0c0-1.262 1.023-2.286 2.286-2.286z"></path>
<path d="M2.286 27.429h36.044c1.262 0 2.286 1.023 2.286 2.286v0c0 1.262-1.023 2.286-2.286 2.286h-36.044c-1.262 0-2.286-1.023-2.286-2.286v0c0-1.262 1.023-2.286 2.286-2.286z"></path>
<path d="M13.363 13.714h24.967c1.262 0 2.286 1.023 2.286 2.286v0c0 1.262-1.023 2.286-2.286 2.286h-24.967c-1.262 0-2.286-1.023-2.286-2.286v0c0-1.262 1.023-2.286 2.286-2.286z"></path>
</symbol>
</defs>
</svg>
